<svg width="347" height="293" viewBox="0 0 347 293" fill="none" xmlns="http://www.w3.org/2000/svg">
<path d="M177.641 172.619C177.888 166.246 181.08 160.295 186.348 156.561C189.096 154.609 191.511 152.924 191.906 152.733C192.805 152.306 193.874 151.901 194.807 151.485C197.16 150.444 199.478 149.321 201.803 148.204C206.161 146.106 209.964 144.754 214.635 143.412C219.864 141.911 225.242 140.642 230.548 139.435C241.232 137.008 253.658 126.737 246.916 129.931C234.226 135.95 216.165 139.435 216.685 136.904C219.212 132.521 224.798 126.168 224.24 123.751C214.499 131.567 217.393 136.13 195.796 143.755C190.688 145.559 185.327 146.911 180.174 147.102C180.174 128.696 210.037 128.377 229.736 104.365C238.786 93.3173 266.813 91.3893 254.057 91.6355C226.766 92.166 238.768 101.833 245.275 55.5007L240.028 70.4665C238.383 73.9825 222.477 52.4563 230.343 64.5613C233.511 69.4366 240.451 70.5601 234.712 84.4058C223.31 111.913 181.472 126.786 178.488 125.926C174.355 124.733 173.967 106.223 186.837 86.996C191.643 76.649 205.71 64.4677 203.961 51.156C201.216 60.2547 194.922 66.5308 193.031 69.9671C189.72 75.9763 189.72 73.6219 176.247 63.3893L176.125 64.9011L183.898 72.0164C188.495 80.068 179.047 89.7423 171.208 97.3881C160.729 107.603 163.585 98.9207 147.134 87.0342C135.457 78.5943 129.565 69.7695 136.023 53.2053C135.37 52.6123 134.565 52.9209 133.431 55.0569L129.017 69.343C123.93 64.9774 111.827 54.1866 113.943 46.6933C114.256 45.5872 98.4256 45.5802 143.625 92.6446C152.758 102.18 160.646 116.494 163.172 129.41C163.807 132.67 164.081 135.544 163.737 138.859C163.637 139.851 163.564 140.846 163.498 141.841C163.491 141.89 163.484 141.949 163.484 142.022C163.415 145.167 155.767 145.108 155.753 145.108C155.236 145.025 154.733 144.931 154.302 144.869C146.349 143.658 139.715 140.465 131.675 139.855C128.139 139.588 125.12 139.369 121.608 138.669C115.685 137.483 109.366 135.451 103.596 133.533C102.891 133.301 102.18 133.062 101.476 132.829C91.7771 129.566 75.4163 132.257 82.672 132.857C96.3263 133.998 112.299 140.073 110.175 142.015C105.289 144.567 96.7461 147.285 95.5108 149.678C108.173 147.785 108.908 143.041 130.644 145.42C146.748 147.181 166.093 151.044 166.093 171.135C166.093 171.721 166.118 172.383 166.159 173.108L177.648 172.615L177.641 172.619Z" fill="#003e41"/>
<path d="M199.256 97.0171L209.079 106.834C212.074 109.826 216.946 109.826 219.94 106.834L229.764 97.0171C232.758 94.0247 232.758 89.1563 229.764 86.1638L219.94 76.3473C216.946 73.3549 212.074 73.3549 209.079 76.3473L199.256 86.1638C196.261 89.1563 196.261 94.0247 199.256 97.0171ZM214.51 83.5771L222.529 91.5905L214.51 99.6039L206.491 91.5905L214.51 83.5771Z" fill="#34A46B"/>
<path d="M202.268 140.999L195.133 148.128C192.958 150.302 192.958 153.839 195.133 156.01L202.268 163.139C204.443 165.313 207.983 165.313 210.155 163.139L217.289 156.01C219.465 153.835 219.465 150.299 217.289 148.128L210.155 140.999C207.979 138.825 204.44 138.825 202.268 140.999ZM212.039 152.071L206.213 157.892L200.387 152.071L206.213 146.249L212.039 152.071Z" fill="#6CCA6D"/>
<path d="M242.086 127.639L232.262 137.455C229.268 140.447 229.268 145.316 232.262 148.308L242.086 158.125C245.08 161.117 249.952 161.117 252.947 158.125L262.77 148.308C265.765 145.316 265.765 140.447 262.77 137.455L252.947 127.639C249.952 124.646 245.08 124.646 242.086 127.639ZM255.535 142.882L247.516 150.895L239.497 142.882L247.516 134.868L255.535 142.882Z" fill="#6CCA6D"/>
<path d="M245.045 60.9205L252.18 53.7913C254.355 51.6172 254.355 48.0803 252.18 45.9097L245.045 38.7805C242.87 36.6064 239.33 36.6064 237.158 38.7805L230.024 45.9097C227.848 48.0838 227.848 51.6206 230.024 53.7913L237.158 60.9205C239.334 63.0946 242.873 63.0946 245.045 60.9205ZM235.278 49.8487L241.104 44.0268L246.93 49.8487L241.104 55.6707L235.278 49.8487Z" fill="#6CCA6D"/>
<path d="M114.641 53.9334L124.464 44.117C127.459 41.1245 127.459 36.2561 124.464 33.2637L114.641 23.4472C111.646 20.4548 106.774 20.4548 103.78 23.4472L93.9563 33.2637C90.9617 36.2561 90.9617 41.1245 93.9563 44.117L103.78 53.9334C106.774 56.9259 111.646 56.9259 114.641 53.9334ZM101.191 38.6869L109.21 30.6735L117.229 38.6869L109.21 46.7002L101.191 38.6869Z" fill="#6CCA6D"/>
<path d="M199.256 97.0171L209.079 106.834C212.074 109.826 216.946 109.826 219.94 106.834L229.764 97.0171C232.758 94.0246 232.758 89.1563 229.764 86.1638L219.94 76.3473C216.946 73.3549 212.074 73.3549 209.079 76.3473L199.256 86.1638C196.261 89.1563 196.261 94.0246 199.256 97.0171ZM214.51 83.5771L222.529 91.5905L214.51 99.6038L206.491 91.5905L214.51 83.5771Z" fill="url(#paint0_linear_1701_1585)"/>
<path d="M202.268 140.999L195.134 148.128C192.958 150.302 192.958 153.839 195.134 156.01L202.268 163.139C204.443 165.313 207.983 165.313 210.155 163.139L217.289 156.01C219.465 153.835 219.465 150.299 217.289 148.128L210.155 140.999C207.979 138.825 204.44 138.825 202.268 140.999ZM212.039 152.071L206.213 157.892L200.387 152.071L206.213 146.249L212.039 152.071Z" fill="url(#paint1_linear_1701_1585)"/>
<path d="M242.086 127.639L232.262 137.455C229.268 140.447 229.268 145.316 232.262 148.308L242.086 158.125C245.08 161.117 249.952 161.117 252.947 158.125L262.77 148.308C265.765 145.316 265.765 140.447 262.77 137.455L252.947 127.639C249.952 124.646 245.08 124.646 242.086 127.639ZM255.535 142.882L247.516 150.895L239.497 142.882L247.516 134.868L255.535 142.882Z" fill="url(#paint2_linear_1701_1585)"/>
<path d="M245.045 60.9205L252.18 53.7913C254.355 51.6172 254.355 48.0803 252.18 45.9097L245.045 38.7805C242.87 36.6064 239.33 36.6064 237.158 38.7805L230.024 45.9097C227.848 48.0838 227.848 51.6206 230.024 53.7913L237.158 60.9205C239.334 63.0946 242.873 63.0946 245.045 60.9205ZM235.278 49.8487L241.104 44.0268L246.93 49.8487L241.104 55.6707L235.278 49.8487Z" fill="url(#paint3_linear_1701_1585)"/>
<path d="M114.641 53.9334L124.464 44.117C127.459 41.1245 127.459 36.2561 124.464 33.2637L114.641 23.4472C111.646 20.4548 106.774 20.4548 103.78 23.4472L93.9563 33.2637C90.9617 36.2561 90.9617 41.1245 93.9563 44.117L103.78 53.9334C106.774 56.9259 111.646 56.9259 114.641 53.9334ZM101.191 38.6869L109.21 30.6735L117.229 38.6869L109.21 46.7002L101.191 38.6869Z" fill="url(#paint4_linear_1701_1585)"/>
<path d="M95.7745 137.847L102.909 130.718C105.084 128.544 105.084 125.007 102.909 122.836L95.7745 115.707C93.5989 113.533 90.0595 113.533 87.8873 115.707L80.7531 122.836C78.5774 125.01 78.5774 128.547 80.7531 130.718L87.8873 137.847C90.063 140.018 93.6023 140.021 95.7745 137.847ZM86.0066 126.775L91.8327 120.953L97.6587 126.775L91.8327 132.597L86.0066 126.775Z" fill="url(#paint5_linear_1701_1585)"/>
<path d="M174.841 68.6599L181.975 61.5307C184.151 59.3566 184.151 55.8198 181.975 53.6491L174.841 46.5199C172.665 44.3458 169.126 44.3458 166.954 46.5199L159.82 53.6491C157.644 55.8232 157.644 59.3601 159.82 61.5307L166.954 68.6599C169.13 70.834 172.669 70.834 174.841 68.6599ZM165.07 57.5882L170.896 51.7663L176.722 57.5882L170.896 63.4101L165.07 57.5882Z" fill="url(#paint6_linear_1701_1585)"/>
<path d="M209.374 54.5819L219.198 44.7654C222.192 41.7729 222.192 36.9046 219.198 33.9121L209.371 24.0956C206.376 21.1032 201.504 21.1032 198.51 24.0956L188.686 33.9121C185.692 36.9046 185.692 41.7729 188.686 44.7654L198.51 54.5819C201.504 57.5743 206.38 57.5743 209.374 54.5819ZM195.921 39.3388L203.94 31.3254L211.959 39.3388L203.94 47.3521L195.921 39.3388Z" fill="url(#paint7_linear_1701_1585)"/>
<path d="M95.7745 137.847L102.909 130.718C105.084 128.544 105.084 125.007 102.909 122.836L95.7745 115.707C93.5989 113.533 90.0595 113.533 87.8873 115.707L80.7531 122.836C78.5774 125.01 78.5774 128.547 80.7531 130.718L87.8873 137.847C90.063 140.018 93.6023 140.021 95.7745 137.847ZM86.0066 126.775L91.8327 120.953L97.6587 126.775L91.8327 132.597L86.0066 126.775Z" fill="#6CCA6D"/>
<path d="M174.841 68.6599L181.975 61.5307C184.151 59.3566 184.151 55.8198 181.975 53.6491L174.841 46.5199C172.665 44.3458 169.126 44.3458 166.954 46.5199L159.82 53.6491C157.644 55.8232 157.644 59.3601 159.82 61.5307L166.954 68.6599C169.13 70.834 172.669 70.834 174.841 68.6599ZM165.07 57.5882L170.896 51.7663L176.722 57.5882L170.896 63.4101L165.07 57.5882Z" fill="#6CCA6D"/>
<path d="M209.374 54.5819L219.198 44.7654C222.192 41.7729 222.192 36.9046 219.198 33.9121L209.371 24.0956C206.376 21.1032 201.504 21.1032 198.51 24.0956L188.686 33.9121C185.692 36.9046 185.692 41.7729 188.686 44.7654L198.51 54.5819C201.504 57.5743 206.38 57.5743 209.374 54.5819ZM195.921 39.3388L203.94 31.3254L211.959 39.3388L203.94 47.3521L195.921 39.3388Z" fill="#6CCA6D"/>
<path opacity="0.35" d="M245.58 27.7643V18.2182C245.58 15.7459 243.578 13.7452 241.104 13.7452C238.629 13.7452 236.627 15.7494 236.627 18.2182V27.7643C236.627 30.2366 238.629 32.2373 241.104 32.2373C243.578 32.2373 245.58 30.2366 245.58 27.7643Z" fill="#6CCA6D"/>
<path opacity="0.35" d="M135.343 128.637V119.091C135.343 116.619 133.34 114.618 130.866 114.618C128.392 114.618 126.39 116.622 126.39 119.091V128.637C126.39 131.11 128.392 133.11 130.866 133.11C133.34 133.11 135.343 131.11 135.343 128.637Z" fill="#6CCA6D"/>
<path opacity="0.35" d="M285.949 73.4277V63.8817C285.949 61.4094 283.947 59.4086 281.473 59.4086C278.999 59.4086 276.997 61.4128 276.997 63.8817V73.4277C276.997 75.9 278.999 77.9008 281.473 77.9008C283.947 77.9008 285.949 75.9 285.949 73.4277Z" fill="#B8EA90"/>
<path opacity="0.35" d="M152.897 47.6295V38.0835C152.897 35.6112 150.895 33.6104 148.421 33.6104C145.947 33.6104 143.945 35.6147 143.945 38.0835V47.6295C143.945 50.1019 145.947 52.1026 148.421 52.1026C150.895 52.1026 152.897 50.1019 152.897 47.6295Z" fill="#E2F8CB"/>
<path opacity="0.35" d="M285.949 116.255V106.709C285.949 104.236 283.947 102.236 281.473 102.236C278.999 102.236 276.997 104.24 276.997 106.709V116.255C276.997 118.727 278.999 120.728 281.473 120.728C283.947 120.728 285.949 118.727 285.949 116.255Z" fill="#E2F8CB"/>
<path opacity="0.35" d="M69.7671 112.125V102.579C69.7671 100.107 67.765 98.1059 65.2909 98.1059C62.8168 98.1059 60.8146 100.11 60.8146 102.579V112.125C60.8146 114.597 62.8168 116.598 65.2909 116.598C67.765 116.598 69.7671 114.597 69.7671 112.125Z" fill="#6CCA6D"/>
<path opacity="0.35" d="M69.7671 138.956V129.41C69.7671 126.938 67.765 124.937 65.2909 124.937C62.8168 124.937 60.8146 126.942 60.8146 129.41V138.956C60.8146 141.429 62.8168 143.43 65.2909 143.43C67.765 143.43 69.7671 141.429 69.7671 138.956Z" fill="#E2F8CB"/>
<path opacity="0.35" d="M119.336 85.297V75.7509C119.336 73.2786 117.333 71.2779 114.859 71.2779C112.385 71.2779 110.383 73.2821 110.383 75.7509V85.297C110.383 87.7693 112.385 89.77 114.859 89.77C117.333 89.77 119.336 87.7693 119.336 85.297Z" fill="#6CCA6D"/>
<path opacity="0.35" d="M245.58 116.771V107.225C245.58 104.753 243.578 102.752 241.104 102.752C238.629 102.752 236.627 104.757 236.627 107.225V116.771C236.627 119.244 238.629 121.244 241.104 121.244C243.578 121.244 245.58 119.244 245.58 116.771Z" fill="#E2F8CB"/>
<path opacity="0.35" d="M281.473 130.895C278.999 130.895 276.997 132.899 276.997 135.368V140.139C276.997 142.611 279.003 144.612 281.473 144.612C283.947 144.612 285.949 142.608 285.949 140.139V135.368C285.949 132.899 283.947 130.895 281.473 130.895Z" fill="#6CCA6D"/>
<path opacity="0.35" d="M260.82 107.676C258.346 107.676 256.344 109.68 256.344 112.149V116.921C256.344 119.393 258.349 121.394 260.82 121.394C263.294 121.394 265.296 119.389 265.296 116.921V112.149C265.296 109.68 263.294 107.676 260.82 107.676Z" fill="#6CCA6D"/>
<path opacity="0.35" d="M203.746 0C201.272 0 199.27 2.00421 199.27 4.47307V9.24435C199.27 11.7167 201.275 13.7174 203.746 13.7174C206.22 13.7174 208.222 11.7132 208.222 9.24435V4.47307C208.226 2.00421 206.22 0 203.746 0Z" fill="#B8EA90"/>
<path opacity="0.35" d="M130.898 94.2604C128.423 94.2604 126.421 96.2646 126.421 98.7335V103.505C126.421 105.977 128.427 107.978 130.898 107.978C133.372 107.978 135.374 105.974 135.374 103.505V98.7335C135.374 96.2646 133.372 94.2604 130.898 94.2604Z" fill="#E3F8CB"/>
<path opacity="0.35" d="M170.653 18.7349C168.179 18.7349 166.177 20.7391 166.177 23.208V27.9792C166.177 30.4516 168.182 32.4523 170.653 32.4523C173.127 32.4523 175.129 30.4481 175.129 27.9792V23.208C175.129 20.7391 173.127 18.7349 170.653 18.7349Z" fill="#6CCA6D"/>
<path opacity="0.35" d="M148.452 12.2229C145.978 12.2229 143.976 14.2271 143.976 16.696V21.4673C143.976 23.9396 145.981 25.9403 148.452 25.9403C150.926 25.9403 152.928 23.9361 152.928 21.4673V16.696C152.928 14.2271 150.926 12.2229 148.452 12.2229Z" fill="#6CCA6D"/>
<path opacity="0.35" d="M92.1727 87.5543C89.6986 87.5543 87.6964 89.5585 87.6964 92.0274V96.7986C87.6964 99.271 89.702 101.272 92.1727 101.272C94.6467 101.272 96.6489 99.2675 96.6489 96.7986V92.0274C96.6489 89.5585 94.6467 87.5543 92.1727 87.5543Z" fill="#6CCA6D"/>
<path opacity="0.35" d="M260.303 63.3026C257.829 63.3026 255.827 65.3068 255.827 67.7757V72.547C255.827 75.0193 257.832 77.02 260.303 77.02C262.777 77.02 264.779 75.0158 264.779 72.547V67.7757C264.779 65.3068 262.777 63.3026 260.303 63.3026Z" fill="#6CCA6D"/>
<path opacity="0.35" d="M191.306 100.967C188.832 100.967 186.83 102.971 186.83 105.44V110.211C186.83 112.683 188.835 114.684 191.306 114.684C193.78 114.684 195.782 112.68 195.782 110.211V105.44C195.782 102.971 193.78 100.967 191.306 100.967Z" fill="#6CCA6D"/>
<path opacity="0.35" d="M92.1727 62.786C89.6986 62.786 87.6964 64.7902 87.6964 67.259V72.0303C87.6964 74.5026 89.702 76.5034 92.1727 76.5034C94.6467 76.5034 96.6489 74.4992 96.6489 72.0303V67.259C96.6489 64.7902 94.6467 62.786 92.1727 62.786Z" fill="#B8EA90"/>
<path d="M59.6452 168.794C52.7782 166.079 44.9118 164.078 38.0482 164.078C26.8922 164.078 17.5962 170.795 17.5962 180.088C17.5962 188.091 23.0302 192.522 40.0503 199.097C60.0755 206.528 68.9413 216.393 68.9413 230.113C68.9413 253.696 49.3464 261.699 29.7515 261.699C19.4526 261.699 6.86706 258.412 0 253.838L3.4318 239.545C10.1531 243.977 22.0239 246.692 29.748 246.692C47.3407 246.692 53.7775 238.973 53.7775 228.969C53.7775 220.394 43.6244 214.964 27.6036 209.104C8.72349 202.387 1.8599 192.096 1.8599 179.804C1.8599 159.366 20.5977 150.073 38.0482 150.073C47.2019 150.073 57.0705 152.788 63.6496 155.503L59.6452 168.794Z" fill="#003e41"/>
<path d="M152.189 180.802C149.042 207.53 135.454 236.546 123.01 260.842C115.574 275.565 108.707 293 90.5418 293C81.2458 293 72.3765 288.426 69.2293 285.281L77.238 273.846C81.6726 277.563 84.5318 279.133 90.9686 279.133C100.265 279.133 103.412 268.988 107.989 260.839C95.5455 236.542 79.0979 207.526 75.9506 180.799H90.8263C93.4011 202.238 104.557 225.249 115.428 246.116C125.439 225.249 134.739 202.238 137.313 180.799H152.189V180.802Z" fill="#003e41"/>
<path d="M179.224 150.073V231.972C179.224 242.978 184.373 247.122 193.957 247.122C197.104 247.122 198.25 246.837 200.252 246.265V258.987C198.68 260.132 194.96 260.846 192.67 260.846C177.794 260.846 164.351 253.842 164.351 234.403V151.218L179.227 150.073H179.224Z" fill="#003e41"/>
<path d="M276.483 180.802C273.336 207.53 258.318 236.546 245.875 260.842H230.857C218.413 236.546 203.395 207.53 200.248 180.802H215.124C217.699 202.242 227.998 225.252 238.439 246.119C248.738 225.252 259.036 202.242 261.611 180.802H276.487H276.483Z" fill="#003e41"/>
<path d="M347 209.388V254.982C338.561 258.554 331.125 262.129 317.679 262.129C293.219 262.129 281.491 251.837 281.491 234.399C281.491 213.248 304.517 208.674 317.679 208.674C323.685 208.674 328.55 209.53 332.697 210.675C332.412 199.097 325.687 192.522 314.962 192.522C309.098 192.522 301.804 193.524 295.651 195.952L290.644 185.088C298.653 181.229 307.664 179.8 315.531 179.8C330.837 179.8 346.997 190.806 346.997 209.385M317.675 249.261C322.825 249.261 327.402 248.405 332.693 246.546V222.676C327.974 221.247 322.967 220.387 317.818 220.387C309.236 220.387 295.506 221.816 295.506 234.392C295.506 244.684 303.23 249.258 317.675 249.258" fill="#003e41"/>
<defs>
<linearGradient id="paint0_linear_1701_1585" x1="214.51" y1="225.238" x2="214.51" y2="30.7497" gradientUnits="userSpaceOnUse">
<stop stop-color="#007864"/>
<stop offset="0.38" stop-color="#36A46C"/>
<stop offset="0.68" stop-color="#6CCA6D"/>
<stop offset="1" stop-color="#E2F8CB"/>
</linearGradient>
<linearGradient id="paint1_linear_1701_1585" x1="206.21" y1="225.238" x2="206.21" y2="30.7498" gradientUnits="userSpaceOnUse">
<stop stop-color="#007864"/>
<stop offset="0.38" stop-color="#36A46C"/>
<stop offset="0.68" stop-color="#6CCA6D"/>
<stop offset="1" stop-color="#E2F8CB"/>
</linearGradient>
<linearGradient id="paint2_linear_1701_1585" x1="247.516" y1="225.238" x2="247.516" y2="30.7498" gradientUnits="userSpaceOnUse">
<stop stop-color="#007864"/>
<stop offset="0.38" stop-color="#36A46C"/>
<stop offset="0.68" stop-color="#6CCA6D"/>
<stop offset="1" stop-color="#E2F8CB"/>
</linearGradient>
<linearGradient id="paint3_linear_1701_1585" x1="241.104" y1="225.238" x2="241.104" y2="30.7498" gradientUnits="userSpaceOnUse">
<stop stop-color="#007864"/>
<stop offset="0.38" stop-color="#36A46C"/>
<stop offset="0.68" stop-color="#6CCA6D"/>
<stop offset="1" stop-color="#E2F8CB"/>
</linearGradient>
<linearGradient id="paint4_linear_1701_1585" x1="109.21" y1="225.238" x2="109.21" y2="30.7498" gradientUnits="userSpaceOnUse">
<stop stop-color="#007864"/>
<stop offset="0.38" stop-color="#36A46C"/>
<stop offset="0.68" stop-color="#6CCA6D"/>
<stop offset="1" stop-color="#E2F8CB"/>
</linearGradient>
<linearGradient id="paint5_linear_1701_1585" x1="91.8292" y1="225.238" x2="91.8292" y2="30.7497" gradientUnits="userSpaceOnUse">
<stop stop-color="#007864"/>
<stop offset="0.38" stop-color="#36A46C"/>
<stop offset="0.68" stop-color="#6CCA6D"/>
<stop offset="1" stop-color="#E2F8CB"/>
</linearGradient>
<linearGradient id="paint6_linear_1701_1585" x1="170.899" y1="225.238" x2="170.899" y2="30.7498" gradientUnits="userSpaceOnUse">
<stop stop-color="#007864"/>
<stop offset="0.38" stop-color="#36A46C"/>
<stop offset="0.68" stop-color="#6CCA6D"/>
<stop offset="1" stop-color="#E2F8CB"/>
</linearGradient>
<linearGradient id="paint7_linear_1701_1585" x1="203.944" y1="225.238" x2="203.944" y2="30.7498" gradientUnits="userSpaceOnUse">
<stop stop-color="#007864"/>
<stop offset="0.38" stop-color="#36A46C"/>
<stop offset="0.68" stop-color="#6CCA6D"/>
<stop offset="1" stop-color="#E2F8CB"/>
</linearGradient>
</defs>
</svg>
